<svg width="74" height="92" viewBox="0 0 74 92" fill="none" xmlns="http://www.w3.org/2000/svg">
<path d="M18.4 18.4H13.8C12.58 18.4 11.41 17.9154 10.5473 17.0527C9.68464 16.19 9.2 15.02 9.2 13.8C9.2 12.58 9.68464 11.41 10.5473 10.5473C11.41 9.68464 12.58 9.2 13.8 9.2H64.4V4.6C64.4 3.38 63.9153 2.20998 63.0527 1.34731C62.19 0.484642 61.02 0 59.8 0L9.2 0C6.76001 0 4.41995 0.969283 2.69462 2.69462C0.969282 4.41995 0 6.76001 0 9.2V82.8C0 87.86 4.14 92 9.2 92H64.4C66.84 92 69.18 91.0307 70.9054 89.3054C72.6307 87.58 73.6 85.24 73.6 82.8V23C73.6 21.78 73.1154 20.61 72.2527 19.7473C71.39 18.8846 70.22 18.4 69 18.4H36.8V55.2L27.6 46L18.4 55.2V18.4Z" fill="#E27C03"/>
</svg>
