<svg width="65" height="92" viewBox="0 0 65 92" fill="none" xmlns="http://www.w3.org/2000/svg">
<path d="M32.6 92C32.6 92 0.400024 50.002 0.400024 32.2C0.400024 27.9714 1.2329 23.7843 2.8511 19.8776C4.4693 15.9709 6.84114 12.4212 9.83118 9.43116C12.8212 6.44111 16.3709 4.06928 20.2776 2.45108C24.1843 0.832878 28.3715 0 32.6 0C36.8286 0 41.0157 0.832878 44.9224 2.45108C48.8291 4.06928 52.3788 6.44111 55.3689 9.43116C58.3589 12.4212 60.7307 15.9709 62.3489 19.8776C63.9671 23.7843 64.8 27.9714 64.8 32.2C64.8 50.002 32.6 92 32.6 92ZM32.6 41.4C35.04 41.4 37.3801 40.4307 39.1054 38.7054C40.8307 36.98 41.8 34.64 41.8 32.2C41.8 29.76 40.8307 27.42 39.1054 25.6946C37.3801 23.9693 35.04 23 32.6 23C30.16 23 27.82 23.9693 26.0946 25.6946C24.3693 27.42 23.4 29.76 23.4 32.2C23.4 34.64 24.3693 36.98 26.0946 38.7054C27.82 40.4307 30.16 41.4 32.6 41.4Z" fill="#E27C03"/>
</svg>
